<svg xmlns="http://www.w3.org/2000/svg" viewBox="0 0 74.65 28.46"><defs><style>.cls-1{isolation:isolate;}.cls-2{mix-blend-mode:multiply;}.cls-3{fill:#452ad1;}.cls-4{fill:#12d3d8;}.cls-5{fill:#0094ff;}</style></defs><title>2Artboard 8</title><g class="cls-1"><g id="Layer_1" data-name="Layer 1"><g class="cls-2"><path class="cls-3" d="M64.23,28.46a1.51,1.51,0,0,1-1.06-2.57L72.09,17a1.5,1.5,0,1,1,2.12,2.12L65.29,28A1.51,1.51,0,0,1,64.23,28.46Z"/></g><g class="cls-2"><path class="cls-4" d="M73.15,19.53a1.53,1.53,0,0,1-1.06-.44l-8.92-8.93a1.49,1.49,0,0,1,0-2.12,1.51,1.51,0,0,1,2.12,0L74.21,17a1.5,1.5,0,0,1-1.06,2.56Z"/></g><g class="cls-2"><path class="cls-3" d="M1.5,19.53a1.51,1.51,0,0,1-1.06-.44A1.49,1.49,0,0,1,.44,17L9.37,8a1.5,1.5,0,0,1,2.12,2.12L2.56,19.09A1.51,1.51,0,0,1,1.5,19.53Z"/></g><g class="cls-2"><path class="cls-4" d="M10.43,28.46A1.49,1.49,0,0,1,9.37,28L.44,19.09A1.5,1.5,0,0,1,2.56,17l8.93,8.92a1.51,1.51,0,0,1-1.06,2.57Z"/></g><g class="cls-2"><path class="cls-5" d="M52,28.45H24.42a1.5,1.5,0,0,1,0-3H52a1.5,1.5,0,0,1,0,3Z"/></g><g class="cls-2"><path class="cls-3" d="M24.36,28.46a9.54,9.54,0,1,1,.16-19.08,1.5,1.5,0,0,1,0,3,6.71,6.71,0,0,0-6.7,6.54,6.55,6.55,0,0,0,6.54,6.54,1.5,1.5,0,0,1,0,3Z"/></g><g class="cls-2"><path class="cls-3" d="M51.93,28.46a1.5,1.5,0,0,1,0-3,4.18,4.18,0,0,0,0-8.35,1.5,1.5,0,1,1,0-3,7.18,7.18,0,0,1,0,14.35Z"/></g><g class="cls-2"><path class="cls-5" d="M51.93,17.11a1.5,1.5,0,0,1-1.5-1.5,12.61,12.61,0,0,0-25.22,0,1.5,1.5,0,0,1-3,0,15.61,15.61,0,0,1,31.22,0A1.5,1.5,0,0,1,51.93,17.11Z"/></g></g></g></svg>