<svg id="Layer_1" data-name="Layer 1" xmlns="http://www.w3.org/2000/svg" viewBox="0 0 74.65 28.46"><defs><style>.cls-1{fill:#fff;}</style></defs><title>2Artboard 15</title><path class="cls-1" d="M74.21,17,65.29,8a1.51,1.51,0,0,0-2.12,0,1.49,1.49,0,0,0,0,2.12L71,18l-7.86,7.86A1.5,1.5,0,1,0,65.29,28l8.92-8.93A1.47,1.47,0,0,0,74.65,18,1.45,1.45,0,0,0,74.21,17Z"/><path class="cls-1" d="M11.49,8A1.51,1.51,0,0,0,9.37,8L.44,17A1.49,1.49,0,0,0,0,18a1.51,1.51,0,0,0,.44,1.06L9.37,28a1.49,1.49,0,0,0,1.06.44,1.51,1.51,0,0,0,1.06-2.57L3.62,18l7.87-7.87A1.51,1.51,0,0,0,11.49,8Z"/><path class="cls-1" d="M53.36,14.25A15.6,15.6,0,0,0,23.49,9.44a9.53,9.53,0,0,0,.87,19H52a7.17,7.17,0,0,0,1.32-14.2Zm-1.42,11.2H24.36a6.55,6.55,0,0,1-6.54-6.54,6.68,6.68,0,0,1,4.67-6.22,15.6,15.6,0,0,0-.28,2.91,1.5,1.5,0,0,0,3,0,12.61,12.61,0,0,1,25.22,0A1.5,1.5,0,0,0,51.35,17a1.4,1.4,0,0,0,.58.12,4.17,4.17,0,0,1,0,8.34Z"/></svg>